# xmcd
#
# Track frame offsets:
#	150
#	1090
#	21436
#	43231
#	77162
#	100468
#	135033
#	173836
#	194419
#	217039
#	262883
#	277729
#
# Disc length: 4164 seconds
#
# Revision: 1
# Processed by: cddbd v1.5.2PL0 Copyright (c) Steve Scherf et al.
# Submitted via: audiograbber 1.83.01
#
DISCID=9b10420c
DTITLE=Grateful Dead - 80-05-11 Cumberland County Civic Centre, Portland ME
DYEAR=1900
DGENRE=
TTITLE0=Tuning
TTITLE1=Alabama Getaway
TTITLE2=Promised Land
TTITLE3=They Love Each Other
TTITLE4=Cassidy
TTITLE5=Loser
TTITLE6=It's All Over Now
TTITLE7=Easy To Love You
TTITLE8=Big Railroad Blues
TTITLE9=Looks Like Rain
TTITLE10=Don't Ease Me In
TTITLE11=The Music Never Stopped
EXTD=
EXTT0=
EXTT1=
EXTT2=
EXTT3=
EXTT4=
EXTT5=
EXTT6=
EXTT7=
EXTT8=
EXTT9=
EXTT10=
EXTT11=
PLAYORDER=
